<svg width="103" height="117" viewBox="0 0 103 117" fill="none" xmlns="http://www.w3.org/2000/svg">
<g id="lightbulb icon" clip-path="url(#clip0_86_456)">
<path id="Vector" d="M63.9547 102.507L38.835 108.997L39.3097 110.858L64.4294 104.367L63.9547 102.507Z" fill="#BB9A54"/>
<path id="Vector_2" d="M51.9706 21.8478C43.1646 21.8478 31.8898 25.9971 26.7742 37.6254C21.7604 48.972 23.6692 55.7338 24.9417 60.2161C26.4433 65.5692 30.4646 70.2563 33.6714 74.0471L34.5367 75.0716C38.6598 79.938 38.6852 88.3903 38.6852 88.4928H40.5941C40.5941 88.1342 40.5686 79.2465 35.9874 73.8421L35.0967 72.8176C31.9916 69.1806 28.1486 64.6471 26.7488 59.7038C25.4762 55.2471 23.771 49.1513 28.5049 38.4194C33.2642 27.6364 43.75 23.7944 51.9706 23.7944C61.2602 23.7944 69.8118 29.0195 74.3166 37.3949C79.305 46.718 77.4216 56.9632 76.3526 59.8062C74.5965 64.519 73.2222 66.6449 67.6993 73.3043C63.958 77.7865 62.9909 83.5495 62.7618 85.5473L38.7361 92.0274L39.2197 93.8715L64.5434 87.0328L64.5943 86.3413C64.5943 86.3413 65.0779 79.4258 69.15 74.5337C74.8765 67.6694 76.3018 65.4411 78.1342 60.4722C79.3559 57.1937 81.341 46.4875 75.9963 36.4728C71.1607 27.4571 61.9729 21.8478 51.9706 21.8478Z" fill="#181818"/>
<path id="Vector_3" d="M52.098 115.079C52.098 115.079 52.0217 115.079 51.9708 115.079C47.1351 115.028 45.5826 112.723 45.5317 112.62L44.7173 113.132L43.9028 113.645C43.9792 113.773 45.9898 116.923 51.9453 117C51.9962 117 52.0471 117 52.098 117C56.9846 117 59.9369 113.875 60.0642 113.747L58.6644 112.441C58.6644 112.441 56.1193 115.105 52.098 115.105V115.079Z" fill="#BB9A54"/>
<path id="Vector_4" d="M59.9625 60.8052L58.5372 60.7283C54.7959 60.5234 52.4544 62.47 51.3092 63.8787C49.2731 61.0613 45.8117 60.7027 44.0556 60.9588L42.834 61.1381L43.343 62.2907C47.746 72.4591 47.0843 83.2421 47.0843 83.3446L48.9931 83.4726C49.0186 83.0372 49.6548 73.0225 45.659 62.8286C47.0843 62.931 49.324 63.5457 50.3929 66.0558L51.2073 67.9768L52.1236 66.0814C52.1236 66.0814 53.5997 63.1359 57.0356 62.6493C55.814 65.7228 53.2434 73.4836 53.8288 83.4982L55.7376 83.3958C55.025 71.1272 59.3262 62.1626 59.3771 62.0602L60.0134 60.7539L59.9625 60.8052Z" fill="#BB9A54"/>
<path id="Vector_5" d="M63.9464 94.0389L38.8267 100.53L39.3014 102.39L64.4211 95.8995L63.9464 94.0389Z" fill="#BB9A54"/>
<path id="Vector_6" d="M82.7663 71.5114C82.3845 71.1528 81.7737 71.204 81.4174 71.5882C81.0611 71.9724 81.112 72.5871 81.4938 72.9457L92.1323 82.3969C92.3104 82.5506 92.5395 82.6274 92.7685 82.6274C93.023 82.6274 93.303 82.525 93.4812 82.2944C93.8375 81.9102 93.7866 81.2955 93.4048 80.937L82.7663 71.4858V71.5114Z" fill="#181818"/>
<path id="Vector_7" d="M19.2919 71.5114L8.65341 80.9626C8.24619 81.3211 8.22074 81.9102 8.57706 82.32C8.75521 82.5249 9.03517 82.653 9.28968 82.653C9.51874 82.653 9.7478 82.5762 9.92596 82.4225L20.5645 72.9713C20.9717 72.6127 20.9971 72.0236 20.6408 71.6138C20.2845 71.204 19.6737 71.1784 19.2919 71.537V71.5114Z" fill="#181818"/>
<path id="Vector_8" d="M15.5505 45.6935C15.5505 45.1556 15.1179 44.7202 14.5834 44.7202H0.967136C0.432666 44.7202 0 45.1556 0 45.6935C0 46.2314 0.432666 46.6668 0.967136 46.6668H14.6088C15.1433 46.6668 15.576 46.2314 15.576 45.6935H15.5505Z" fill="#181818"/>
<path id="Vector_9" d="M102.033 44.7458H88.391C87.8565 44.7458 87.4238 45.1813 87.4238 45.7191C87.4238 46.257 87.8565 46.6924 88.391 46.6924H102.033C102.567 46.6924 103 46.257 103 45.7191C103 45.1813 102.567 44.7458 102.033 44.7458Z" fill="#181818"/>
<path id="Vector_10" d="M76.8112 25.8947C77.0402 25.8947 77.2693 25.8179 77.4474 25.6642L87.1697 17.1351C87.5769 16.7765 87.6024 16.1874 87.2715 15.7776C86.9406 15.3678 86.3298 15.3422 85.9226 15.6751L76.2003 24.2042C75.7931 24.5628 75.7677 25.1519 76.0985 25.5617C76.2767 25.7666 76.5567 25.8947 76.8112 25.8947Z" fill="#181818"/>
<path id="Vector_11" d="M51.6146 15.9825C52.1491 15.9825 52.5817 15.5471 52.5817 15.0092V0.973292C52.5817 0.43542 52.1491 0 51.6146 0C51.0801 0 50.6475 0.43542 50.6475 0.973292V15.0348C50.6475 15.5727 51.0801 16.0081 51.6146 16.0081V15.9825Z" fill="#181818"/>
<path id="Vector_12" d="M24.6112 25.6642C24.7893 25.8179 25.0184 25.8947 25.2474 25.8947C25.502 25.8947 25.7819 25.7922 25.9601 25.5617C26.3164 25.1519 26.2655 24.5628 25.8583 24.2042L16.136 15.6751C15.7288 15.3165 15.1434 15.3678 14.7871 15.7776C14.4308 16.1874 14.4817 16.7765 14.8889 17.1351L24.6112 25.6642Z" fill="#181818"/>
</g>
<defs>
<clipPath id="clip0_86_456">
<rect width="103" height="117" fill="white"/>
</clipPath>
</defs>
</svg>
