<svg width="74" height="84" viewBox="0 0 74 84" fill="none" xmlns="http://www.w3.org/2000/svg">
<g clip-path="url(#clip0_534_820)">
<path d="M45.9476 73.5944L27.9004 78.2544L28.2414 79.5902L46.2886 74.9302L45.9476 73.5944Z" fill="#BB9A54"/>
<path d="M37.3381 15.6857C31.0114 15.6857 22.9111 18.6647 19.2358 27.0132C15.6336 35.1594 17.005 40.014 17.9192 43.2321C18.9981 47.0753 21.8871 50.4405 24.1911 53.162L24.8127 53.8976C27.7749 57.3914 27.7932 63.4597 27.7932 63.5333H29.1646C29.1646 63.2759 29.1463 56.8949 25.855 53.0149L25.215 52.2794C22.9842 49.6682 20.2232 46.4133 19.2175 42.8643C18.3032 39.6647 17.0781 35.2881 20.4792 27.5832C23.8985 19.8415 31.432 17.0832 37.3381 17.0832C44.0122 17.0832 50.156 20.8345 53.3924 26.8477C56.9763 33.5412 55.6232 40.8967 54.8552 42.9379C53.5936 46.3214 52.6062 47.8477 48.6383 52.6287C45.9504 55.8468 45.2555 59.9843 45.091 61.4186L27.8298 66.071L28.1772 67.395L46.3709 62.4851L46.4075 61.9886C46.4075 61.9886 46.7549 57.0237 49.6805 53.5114C53.7947 48.5832 54.8187 46.9834 56.1352 43.416C57.0129 41.0622 58.4391 33.3757 54.5993 26.1857C51.1251 19.7128 44.5241 15.6857 37.3381 15.6857Z" fill="white"/>
<path d="M37.4298 82.6208C37.4298 82.6208 37.375 82.6208 37.3384 82.6208C33.8642 82.5841 32.7488 80.9291 32.7122 80.8555L32.1271 81.2233L31.542 81.5911C31.5968 81.683 33.0414 83.9448 37.3201 84C37.3567 84 37.3932 84 37.4298 84C40.9406 84 43.0616 81.7566 43.1531 81.6646L42.1474 80.7268C42.1474 80.7268 40.3189 82.6392 37.4298 82.6392V82.6208Z" fill="#BB9A54"/>
<path d="M43.0793 43.655L42.0554 43.5998C39.3675 43.4527 37.6852 44.8503 36.8624 45.8617C35.3996 43.8389 32.9128 43.5814 31.6511 43.7653L30.7734 43.8941L31.1391 44.7216C34.3025 52.0219 33.8271 59.7636 33.8271 59.8371L35.1984 59.9291C35.2167 59.6165 35.6739 52.4265 32.8031 45.1077C33.8271 45.1813 35.4361 45.6226 36.2041 47.4247L36.7893 48.8039L37.4475 47.4431C37.4475 47.4431 38.5081 45.3284 40.9766 44.979C40.0989 47.1857 38.2521 52.7575 38.6726 59.9475L40.044 59.8739C39.532 51.0657 42.6222 44.6296 42.6588 44.5561L43.1159 43.6182L43.0793 43.655Z" fill="#BB9A54"/>
<path d="M45.9427 67.5151L27.8955 72.175L28.2366 73.5109L46.2837 68.8509L45.9427 67.5151Z" fill="#BB9A54"/>
<path d="M59.4633 51.3415C59.189 51.084 58.7502 51.1208 58.4942 51.3966C58.2382 51.6725 58.2748 52.1138 58.549 52.3713L66.1922 59.1567C66.3202 59.267 66.4848 59.3222 66.6494 59.3222C66.8322 59.3222 67.0333 59.2487 67.1613 59.0832C67.4173 58.8073 67.3808 58.366 67.1065 58.1086L59.4633 51.3231V51.3415Z" fill="white"/>
<path d="M13.8597 51.3415L6.21647 58.127C5.92391 58.3844 5.90562 58.8074 6.16162 59.1016C6.28961 59.2487 6.49075 59.3406 6.6736 59.3406C6.83817 59.3406 7.00273 59.2855 7.13073 59.1751L14.7739 52.3897C15.0665 52.1322 15.0848 51.7093 14.8288 51.4151C14.5728 51.1208 14.1339 51.1025 13.8597 51.3599V51.3415Z" fill="white"/>
<path d="M11.1722 32.8056C11.1722 32.4194 10.8614 32.1068 10.4774 32.1068H0.694836C0.310848 32.1068 0 32.4194 0 32.8056C0 33.1918 0.310848 33.5044 0.694836 33.5044H10.4957C10.8797 33.5044 11.1905 33.1918 11.1905 32.8056H11.1722Z" fill="white"/>
<path d="M73.3053 32.1252H63.5044C63.1204 32.1252 62.8096 32.4379 62.8096 32.824C62.8096 33.2102 63.1204 33.5228 63.5044 33.5228H73.3053C73.6892 33.5228 74.0001 33.2102 74.0001 32.824C74.0001 32.4379 73.6892 32.1252 73.3053 32.1252Z" fill="white"/>
<path d="M55.1845 18.591C55.3491 18.591 55.5137 18.5359 55.6417 18.4256L62.6266 12.3021C62.9192 12.0446 62.9374 11.6217 62.6997 11.3275C62.462 11.0333 62.0232 11.0149 61.7306 11.2539L54.7457 17.3774C54.4531 17.6348 54.4348 18.0578 54.6725 18.352C54.8005 18.4991 55.0017 18.591 55.1845 18.591Z" fill="white"/>
<path d="M37.0825 11.4746C37.4665 11.4746 37.7774 11.162 37.7774 10.7758V0.698774C37.7774 0.312609 37.4665 0 37.0825 0C36.6985 0 36.3877 0.312609 36.3877 0.698774V10.7942C36.3877 11.1804 36.6985 11.493 37.0825 11.493V11.4746Z" fill="white"/>
<path d="M17.6824 18.4256C17.8104 18.5359 17.9749 18.5911 18.1395 18.5911C18.3224 18.5911 18.5235 18.5175 18.6515 18.352C18.9075 18.0578 18.8709 17.6349 18.5784 17.3774L11.5934 11.2539C11.3009 10.9965 10.8803 11.0333 10.6243 11.3275C10.3683 11.6217 10.4049 12.0447 10.6975 12.3021L17.6824 18.4256Z" fill="white"/>
</g>
<defs>
<clipPath id="clip0_534_820">
<rect width="74" height="84" fill="white"/>
</clipPath>
</defs>
</svg>
