<?xml version="1.0" encoding="utf-8"?>
<!-- Generator: Adobe Illustrator 27.5.0, SVG Export Plug-In . SVG Version: 6.00 Build 0)  -->
<svg version="1.1" id="Layer_1" xmlns="http://www.w3.org/2000/svg" xmlns:xlink="http://www.w3.org/1999/xlink" x="0px" y="0px"
	 viewBox="0 0 1920 1080" style="enable-background:new 0 0 1920 1080;" xml:space="preserve">
<style type="text/css">
	.st0{fill:#231F20;}
	
		.st1{clip-path:url(#SVGID_00000001635240736688445810000016591720488672877473_);fill:none;stroke:#231F20;stroke-width:40;stroke-linecap:round;stroke-linejoin:round;stroke-miterlimit:10;}
	
		.st2{clip-path:url(#SVGID_00000072998591040743808180000002019057191061660344_);fill:none;stroke:#231F20;stroke-width:40;stroke-linecap:round;stroke-linejoin:round;stroke-miterlimit:10;}
	
		.st3{clip-path:url(#SVGID_00000159445328427979105100000008583408038664967575_);fill:none;stroke:#231F20;stroke-width:40;stroke-linecap:round;stroke-linejoin:round;stroke-miterlimit:10;}
	
		.st4{clip-path:url(#SVGID_00000019658086497745616870000010746681079804279197_);fill:none;stroke:#231F20;stroke-width:40;stroke-linecap:round;stroke-linejoin:round;stroke-miterlimit:10;}
	
		.st5{clip-path:url(#SVGID_00000012474148394903198010000003226899088695705475_);fill:none;stroke:#231F20;stroke-width:40;stroke-linecap:round;stroke-linejoin:round;stroke-miterlimit:10;}
	
		.st6{clip-path:url(#SVGID_00000173155506634733174560000016398829023688476823_);fill:none;stroke:#231F20;stroke-width:40;stroke-linecap:round;stroke-linejoin:round;stroke-miterlimit:10;}
	
		.st7{clip-path:url(#SVGID_00000148644371145737427340000001170407869443921305_);fill:none;stroke:#231F20;stroke-width:40;stroke-linecap:round;stroke-linejoin:round;stroke-miterlimit:10;}
	
		.st8{clip-path:url(#SVGID_00000088135300271565854320000005370456700636891528_);fill:none;stroke:#231F20;stroke-width:40;stroke-linecap:round;stroke-linejoin:round;stroke-miterlimit:10;}
	
		.st9{clip-path:url(#SVGID_00000090997197033584369550000010475823636291457670_);fill:none;stroke:#231F20;stroke-width:40;stroke-linecap:round;stroke-linejoin:round;stroke-miterlimit:10;}
	
		.st10{clip-path:url(#SVGID_00000144309594524676872930000013908367578578765245_);fill:none;stroke:#231F20;stroke-width:40;stroke-linecap:round;stroke-linejoin:round;stroke-miterlimit:10;}
	
		.st11{clip-path:url(#SVGID_00000134930392859889458570000018018494176127519377_);fill:none;stroke:#231F20;stroke-width:40;stroke-linecap:round;stroke-linejoin:round;stroke-miterlimit:10;}
	
		.st12{clip-path:url(#SVGID_00000026147557332072994590000015370656306315216515_);fill:none;stroke:#231F20;stroke-width:40;stroke-linecap:round;stroke-linejoin:round;stroke-miterlimit:10;}
	
		.st13{clip-path:url(#SVGID_00000146469535560905039990000004622891487271364537_);fill:none;stroke:#231F20;stroke-width:40;stroke-linecap:round;stroke-linejoin:round;stroke-miterlimit:10;}
	
		.st14{clip-path:url(#SVGID_00000160884548788943090500000009278424915429070750_);fill:none;stroke:#231F20;stroke-width:40;stroke-linecap:round;stroke-linejoin:round;stroke-miterlimit:10;}
	
		.st15{clip-path:url(#SVGID_00000127745797282023331390000016474592476666524816_);fill:none;stroke:#231F20;stroke-width:40;stroke-linecap:round;stroke-linejoin:round;stroke-miterlimit:10;}
	
		.st16{clip-path:url(#SVGID_00000043451932777783333460000016421285115055814842_);fill:none;stroke:#231F20;stroke-width:40;stroke-linecap:round;stroke-linejoin:round;stroke-miterlimit:10;}
	
		.st17{clip-path:url(#SVGID_00000140694156230399870740000012287666182391522449_);fill:none;stroke:#231F20;stroke-width:40;stroke-linecap:round;stroke-linejoin:round;stroke-miterlimit:10;}
	
		.st18{clip-path:url(#SVGID_00000074419318424250896340000010127210292096137347_);fill:none;stroke:#231F20;stroke-width:40;stroke-linecap:round;stroke-linejoin:round;stroke-miterlimit:10;}
	
		.st19{clip-path:url(#SVGID_00000018940715955660382550000010490971876415722385_);fill:none;stroke:#231F20;stroke-width:40;stroke-linecap:round;stroke-linejoin:round;stroke-miterlimit:10;}
	
		.st20{clip-path:url(#SVGID_00000054262352528061454200000007581054821834508713_);fill:none;stroke:#231F20;stroke-width:40;stroke-linecap:round;stroke-linejoin:round;stroke-miterlimit:10;}
	
		.st21{clip-path:url(#SVGID_00000109747575735536931030000003839773842250430093_);fill:none;stroke:#231F20;stroke-width:40;stroke-linecap:round;stroke-linejoin:round;stroke-miterlimit:10;}
	
		.st22{clip-path:url(#SVGID_00000023255937644792393080000011135514784240180405_);fill:none;stroke:#231F20;stroke-width:42;stroke-linecap:round;stroke-linejoin:round;stroke-miterlimit:10;}
	
		.st23{clip-path:url(#SVGID_00000010286013233308356170000004483865175078422165_);fill:none;stroke:#231F20;stroke-width:50;stroke-linecap:round;stroke-linejoin:round;stroke-miterlimit:10;}
	
		.st24{clip-path:url(#SVGID_00000055673635211990999630000005377056070988511379_);fill:none;stroke:#231F20;stroke-width:20;stroke-linecap:round;stroke-linejoin:round;stroke-miterlimit:10;}
	
		.st25{clip-path:url(#SVGID_00000000941906161462867680000010676381273342099358_);fill:none;stroke:#231F20;stroke-width:50;stroke-linecap:round;stroke-linejoin:round;stroke-miterlimit:10;}
</style>
<g id="underline">
	<path class="st0" d="M407.6,660.3c-15.1,32.5,3.5,42.1,33.9,44.9c37.5,2.5,75.2-2.9,112.4-7.7c34.5-4.7,77.8-11.8,112.4-17.4
		c99.9-16.5,200.9-32.8,301.5-43.8c88.7-9.6,178-15.6,267.3-13.3c63.9,1.9,128,7.9,190.4,22.4c46.6,11,92.5,26.9,133.9,51.2
		c0,0,8.1,5,8.1,5c-4.5-2-12.9-5.8-17.4-7.6c-29.2-11.9-59.6-20.8-90.3-27.3c-73.8-15.5-149.6-19.2-224.9-18.5
		c-63,0.7-125.8,4.7-188.5,10.4c-99,8.8-202.5,22.7-301.3,35.4c-75.1,9.4-152,19.8-227.7,22.8C481.7,717.5,368.5,722.8,407.6,660.3
		L407.6,660.3z"/>
</g>
<g id="character-T">
	<g id="character-T-2">
		<defs>
			<path id="SVGID_1_" d="M1524.9,439.5c10,1.6,19.5,3,28.3,4.4c8.8,1.3,16.8,2.6,24,3.7c7.2,1.1,13.1,2.1,17.9,3
				c3.6,0.8,5,1.9,4.4,3.2c-0.7,1.3-2.6,2.2-5.9,2.6c-5.2,0.6-11.8,1-19.8,1.2c-8,0.2-16.7,0.2-26.2-0.1c-9.4-0.3-19.4-0.7-29.7-1.3
				c-10.4-0.6-64.8-6.8-64.8-6.8c-5.8-0.9-11.1-1.9-16.1-3.1c-5-1.2-9.5-2.4-13.7-3.6c-5.9-1.8-11.4-4-16.3-6.7
				c-4.9-2.7-9.5-5.5-13.6-8.6c-4.1-3-7.8-6.1-11-9.1c-3.3-3-6.2-5.9-9-8.6c-2.3-2.3-3-4-2-5.1s2.3-1.3,4.1-0.7
				c11.9,4.7,25.1,9,39.8,13c14.7,3.9,30,7.6,45.8,11C1460.9,428,1514.8,437.9,1524.9,439.5z"/>
		</defs>
		<clipPath id="SVGID_00000155846235387376824660000002690128177846292148_">
			<use xlink:href="#SVGID_1_"  style="overflow:visible;"/>
		</clipPath>
		
			<path style="clip-path:url(#SVGID_00000155846235387376824660000002690128177846292148_);fill:none;stroke:#231F20;stroke-width:40;stroke-linecap:round;stroke-linejoin:round;stroke-miterlimit:10;" d="
			M1380.2,409.9c0,0,82.8,44.9,206.7,44.1"/>
	</g>
	<g id="character-T-1">
		<defs>
			<path id="SVGID_00000051375937070110252830000003717282511667557249_" d="M1486.2,453.8c-3.1,8.4-6.2,17.1-9.4,26
				c-3.2,8.9-6.3,17.6-9.1,26.2c-2.8,8.5-5.4,16.7-7.6,24.4c-2.3,7.7-3.9,14.6-5,20.7c-2,10.8-3.2,20.2-3.6,28.2
				c-0.4,8-0.5,14.7-0.1,20.2c0.4,5.5,0.9,9.9,1.7,13.3c0.7,3.4,1.2,5.9,1.4,7.5c0.2,1.6-0.1,2.7-0.8,3c-0.7,0.4-2.3,0.3-4.8-0.1
				c-3.8-0.7-7.5-3.2-11.1-7.5c-3.6-4.3-6.6-10.3-9.1-17.9c-2.4-7.6-3.9-16.8-4.5-27.5c-0.6-10.7,0.3-22.8,2.8-36.2
				c2.3-12.6,5.8-26.3,10.5-41.2c4.7-14.8,9.6-29.3,14.8-43.4l8-21.4l2.8-7.1c3.6-9.5,6.7-17.6,9.2-24.2c2.6-6.6,4.1-11.4,4.6-14.2
				c1.1-5.9,3.3-9.3,6.7-10.1c3.4-0.8,6.8-0.1,10.3,2.1c3.5,2.2,6.4,5.6,8.9,10c2.4,4.4,3.2,8.9,2.4,13.5c-0.4,2.5-1.4,6.1-3,10.9
				c-1.6,4.8-3.4,10.6-5.7,17.3l-3,8.1L1486.2,453.8z"/>
		</defs>
		<clipPath id="SVGID_00000003082723418790448220000010323031326401153467_">
			<use xlink:href="#SVGID_00000051375937070110252830000003717282511667557249_"  style="overflow:visible;"/>
		</clipPath>
		
			<path style="clip-path:url(#SVGID_00000003082723418790448220000010323031326401153467_);fill:none;stroke:#231F20;stroke-width:40;stroke-linecap:round;stroke-linejoin:round;stroke-miterlimit:10;" d="
			M1488.5,382.7c16.7,22.2-62.1,121.7-44.7,227"/>
	</g>
</g>
<g id="character-S">
	<g id="character-S-3">
		<defs>
			<path id="SVGID_00000044175192293723257430000001254891115564344227_" d="M1368.5,522.2c1,0.1,2.8,0.4,5.5,0.8
				c2.6,0.4,5.6,0.9,8.9,1.6c3.3,0.7,6.6,1.7,10.1,2.9c3.5,1.2,6.6,2.8,9.3,4.7c2.7,1.9,4.9,4.2,6.5,6.9c1.6,2.7,2.2,5.9,1.8,9.5
				c-0.4,3.6-1.9,7.5-4.4,11.6c-2.5,4.1-5.6,8-9.3,11.9c-3.7,3.9-7.8,7.5-12.3,11c-4.5,3.5-9,6.6-13.4,9.2c-4.4,2.6-8.5,4.6-12.4,6
				c-3.9,1.4-7,2-9.5,1.7c-3.6-0.4-6.8-1.5-9.6-3.1c-2.7-1.7-4.9-3.4-6.4-5.3c-1.5-1.9-2.4-3.5-2.5-4.8c-0.1-1.4,0.7-1.9,2.3-1.7
				c2,0.2,4.6-0.4,7.9-1.9c3.3-1.5,6.8-3.5,10.5-6c3.7-2.5,7.5-5.3,11.4-8.5c3.9-3.2,7.4-6.3,10.5-9.4c3.1-3.1,5.7-5.9,7.8-8.5
				c2.1-2.6,3.2-4.7,3.4-6.2l-3-2.1C1374.6,537.8,1358.2,526,1368.5,522.2L1368.5,522.2z"/>
		</defs>
		<clipPath id="SVGID_00000134238902197165466120000001254518675690599042_">
			<use xlink:href="#SVGID_00000044175192293723257430000001254891115564344227_"  style="overflow:visible;"/>
		</clipPath>
		
			<path style="clip-path:url(#SVGID_00000134238902197165466120000001254518675690599042_);fill:none;stroke:#231F20;stroke-width:40;stroke-linecap:round;stroke-linejoin:round;stroke-miterlimit:10;" d="
			M1362.4,529.9c0,0,63.6,4.6,16.3,39.8c0,0-10,10.2-32.8,20"/>
	</g>
	<g id="character-S-2">
		<defs>
			<path id="SVGID_00000004507325170975823460000011328170632242544292_" d="M1357.2,540.6c-3.2-1-6.4-2.5-9.4-4.4
				c-3.1-1.9-5.7-4.1-7.9-6.8c-2.2-2.7-3.8-5.9-4.9-9.8c-1.1-3.8-1.3-8.2-0.8-13.2c0.6-5.5,2.6-11.5,5.9-18.2
				c3.3-6.7,7.2-12.9,11.7-18.7c4.5-5.8,9.4-10.5,14.6-14.3c5.2-3.8,10.1-5.4,14.5-4.9c4.5,0.5,9.3,1.1,14.4,1.7
				c5.1,0.6,9.8,1.5,13.9,2.9c0,0,0.1,0,0.1,0c5.1,1.6,5.9,8.6,1.4,11.5l-15.4,9.8c-3.1-0.4-6.3,0.5-9.6,2.5c-3.3,2.1-6.3,4.7-9.2,8
				c-2.9,3.3-5.4,6.9-7.5,11c-2.1,4-3.7,7.8-4.7,11.3c-1,3.5-1.2,6.5-0.8,9c0.5,2.5,1.9,3.9,4.4,4.2c1,0.1,2.8,0.4,5.5,0.8
				c2.6,0.4,5.6,0.9,8.9,1.6c3.3,0.7,6.6,1.7,10.1,2.9c3.5,1.2,6.6,2.8,9.3,4.7c2.7,1.9,4.9,4.2,6.5,6.9
				C1409.7,541.8,1394.6,548.5,1357.2,540.6z"/>
		</defs>
		<clipPath id="SVGID_00000052797253145575014190000010289145714102171055_">
			<use xlink:href="#SVGID_00000004507325170975823460000011328170632242544292_"  style="overflow:visible;"/>
		</clipPath>
		
			<path style="clip-path:url(#SVGID_00000052797253145575014190000010289145714102171055_);fill:none;stroke:#231F20;stroke-width:40;stroke-linecap:round;stroke-linejoin:round;stroke-miterlimit:10;" d="
			M1376.2,465.8c-17.4,11.6-42.8,53.7-6.5,64.1"/>
	</g>
	<g id="character-S-1">
		<defs>
			<path id="SVGID_00000083804002829377354900000001529982125696785795_" d="M1370.6,472.5c-8.4-1.3-11.1-12.1-4.3-17.1
				c0.1,0,0.1-0.1,0.2-0.1c5.2-3.8,10.1-5.4,14.5-4.9c4.5,0.5,9.3,1.1,14.4,1.7c5.1,0.6,9.8,1.5,13.9,2.9c4.1,1.3,7.5,3.3,10,6.1
				c2.5,2.7,3.5,6.4,3,11c-0.5,4.6-2.4,9.3-5.5,14c-3.1,4.7-6.6,8.9-10.3,12.7c-3.7,3.8-7.2,6.8-10.6,9.1c-3.4,2.3-5.5,3.4-6.5,3.3
				c-1.2-0.1-1.3-2-0.4-5.6c0.9-3.6,2-7.5,3.2-11.8c1.2-4.3,2.3-8.2,3.2-11.8c0.9-3.6,0.9-5.4-0.1-5.5
				C1393.7,476,1381.6,474.2,1370.6,472.5z"/>
		</defs>
		<clipPath id="SVGID_00000065073392780886181280000008858798218399721360_">
			<use xlink:href="#SVGID_00000083804002829377354900000001529982125696785795_"  style="overflow:visible;"/>
		</clipPath>
		
			<path style="clip-path:url(#SVGID_00000065073392780886181280000008858798218399721360_);fill:none;stroke:#231F20;stroke-width:40;stroke-linecap:round;stroke-linejoin:round;stroke-miterlimit:10;" d="
			M1392.4,506.9c0,0,33.3-29.7,9.8-42.1c0,0-8.6-5-26,0"/>
	</g>
</g>
<g id="character-U">
	<g id="character-U-3">
		<defs>
			<path id="SVGID_00000023258314429536936110000015785054573086127023_" d="M1289.7,496.5c0.3-3.7,0.5-6.1,0.6-7.5
				c0.1-2.3,0.6-4.7,1.6-7.2c0.9-2.5,2.9-3.6,5.9-3.5c1.5,0.1,3.9,0.3,7.1,0.8c3.2,0.5,6.4,1.3,9.6,2.6c3.2,1.2,6,2.9,8.4,4.9
				c2.4,2,3.5,4.5,3.4,7.5c-0.1,2-0.4,4-0.9,6.1c-0.5,2.1-1.1,4.8-1.8,8.3c-0.7,3.5-1.3,8-2,13.7c-0.7,5.6-1.2,13-1.7,22.2
				c-0.3,7.3-0.2,13.4,0.5,18.2c0.7,4.8,1.3,8.6,1.7,11.3c0.5,2.8,0.5,4.7,0.1,5.9c-0.4,1.2-1.8,1.7-4.3,1.6c-4-0.2-8-1.1-12-2.7
				c-4-1.6-7.6-4.1-10.7-7.4c-3.1-3.3-5.6-7.5-7.4-12.6c-1.9-5.1-2.6-11.1-2.3-18.1c0.1-1.8,0.2-3.7,0.3-5.7c0.1-2,0.3-4.2,0.6-6.5
				C1286.5,528.4,1289.3,500.2,1289.7,496.5z"/>
		</defs>
		<clipPath id="SVGID_00000131332399652653494500000008007764492194813090_">
			<use xlink:href="#SVGID_00000023258314429536936110000015785054573086127023_"  style="overflow:visible;"/>
		</clipPath>
		
			<path style="clip-path:url(#SVGID_00000131332399652653494500000008007764492194813090_);fill:none;stroke:#231F20;stroke-width:40;stroke-linecap:round;stroke-linejoin:round;stroke-miterlimit:10;" d="
			M1306,484.5c12.5,10-13.6,38.3,6.7,88.1"/>
	</g>
	<g id="character-U-2">
		<defs>
			<path id="SVGID_00000038404889595735968110000006217492371686615213_" d="M1263.6,566.3c1.3-2.8,3.1-6.4,5.3-11
				c2.2-4.6,4.5-9.5,6.8-14.8c2.3-5.3,4.7-10.8,7.1-16.4c2.4-5.6,6.2-15.9,6.2-15.9s12-27.1,15.2-26.6c3.2,0.5-17.4,48.4-17.1,46.1
				c0,0-22.2,48.2-23.9,51.6c-1.7,3.4-4.9,4.2-3.9-0.8C1260.2,574.8,1263.6,566.3,1263.6,566.3z"/>
		</defs>
		<clipPath id="SVGID_00000052066682817192861300000000638191363121138834_">
			<use xlink:href="#SVGID_00000038404889595735968110000006217492371686615213_"  style="overflow:visible;"/>
		</clipPath>
		
			<line style="clip-path:url(#SVGID_00000052066682817192861300000000638191363121138834_);fill:none;stroke:#231F20;stroke-width:40;stroke-linecap:round;stroke-linejoin:round;stroke-miterlimit:10;" x1="1259.4" y1="578.3" x2="1306" y2="484.5"/>
	</g>
	<g id="character-U-1">
		<defs>
			<path id="SVGID_00000079448220689617904410000009598495837181395623_" d="M1265.3,575.5c0.4,1.4,0.8,2.5,1.2,3.6
				c0.4,1,0.5,2.2,0.5,3.5c-0.1,1.2-1,1.9-2.9,2.1c-1.8,0.2-4.2-0.1-7-0.9c-2.8-0.9-5.7-2.4-8.8-4.4c-3.1-2.1-5.9-4.9-8.6-8.7
				c-2.7-3.7-4.8-8.3-6.4-13.7c-1.6-5.4-2.2-11.8-1.9-19.1c0.3-6.8,1-14.3,2-22.6s2.1-16.1,3.2-23.8c1.1-7.6,2.1-14.4,3.1-20.4
				c0.9-6,1.5-10,1.6-12.2c0.1-1.5-0.2-3-0.7-4.7c-0.5-1.6-0.9-3.1-1-4.4c-0.2-1.3,0.1-2.4,0.9-3.2c0.8-0.8,2.6-1.1,5.4-1
				c3.3,0.2,6.7,0.8,10.1,1.8c3.4,1.1,6.4,2.4,9.2,4.1c2.8,1.6,5,3.5,6.7,5.6c1.7,2.1,2.6,4.2,2.5,6.4c-0.1,2.3-0.8,5.8-2,10.4
				c-1.2,4.6-2.6,10.1-4,16.6c-1.5,6.4-2.9,13.7-4.3,21.7c-1.4,8-2.3,16.5-2.7,25.3c-0.3,7.5-0.4,13.6-0.1,18.3
				C1261.7,560.5,1265.3,575.5,1265.3,575.5z"/>
		</defs>
		<clipPath id="SVGID_00000022545151700097185960000002981702759967203729_">
			<use xlink:href="#SVGID_00000079448220689617904410000009598495837181395623_"  style="overflow:visible;"/>
		</clipPath>
		
			<path style="clip-path:url(#SVGID_00000022545151700097185960000002981702759967203729_);fill:none;stroke:#231F20;stroke-width:40;stroke-linecap:round;stroke-linejoin:round;stroke-miterlimit:10;" d="
			M1252.9,454c23.8,11.9-32.5,73.4,6.5,124.4"/>
	</g>
</g>
<g id="character-L">
	<g id="character-L-1">
		<defs>
			<path id="SVGID_00000113348074048977551720000005629095122657949856_" d="M1203.7,368.9c-0.1-5,1.4-8.2,4.6-9.6
				c3.2-1.4,6.8-1.5,10.8-0.3c4,1.2,7.7,3.4,11.1,6.6c3.4,3.2,5.2,6.7,5.3,10.5c0.2,2.7-0.1,7.7-0.8,15c-0.7,7.3-1.6,16-2.8,26.1
				c-1.1,10.1-2.3,20.9-3.5,32.6c-1.2,11.7-2.4,23.1-3.6,34.4c-1.1,11.2-2,21.7-2.7,31.4c-0.6,9.7-0.8,17.5-0.5,23.5
				c0.5,9.2,1.3,17.1,2.5,23.6c1.2,6.6,2.6,12.1,4,16.5c1.5,4.4,2.9,7.9,4.2,10.5c1.3,2.6,2.2,4.6,2.7,5.9c0.5,1.3,0.4,2.3-0.1,2.7
				c-0.6,0.5-2,0.7-4.4,0.7c-3.5,0.1-7.5-1.2-12-4.1c-4.5-2.9-8.8-7.2-12.8-12.9c-4.1-5.8-7.6-13-10.5-21.6
				c-3-8.6-4.7-18.6-5.1-29.9c-0.3-7.7-0.2-16.7,0.4-27c0.6-10.3,1.4-21.2,2.4-32.5c1.1-11.3,2.2-22.7,3.6-34
				c1.3-11.3,2.5-21.7,3.7-31.1c1.1-9.4,2-17.4,2.8-24.1C1203.6,375.2,1203.9,370.9,1203.7,368.9z"/>
		</defs>
		<clipPath id="SVGID_00000069366844189589703120000014618296427050711682_">
			<use xlink:href="#SVGID_00000113348074048977551720000005629095122657949856_"  style="overflow:visible;"/>
		</clipPath>
		
			<path style="clip-path:url(#SVGID_00000069366844189589703120000014618296427050711682_);fill:none;stroke:#231F20;stroke-width:40;stroke-linecap:round;stroke-linejoin:round;stroke-miterlimit:10;" d="
			M1218.2,364.5c17.2,22-34.1,150.6,4.7,223.1"/>
	</g>
</g>
<g id="character-R">
	<g id="character-R-3">
		<defs>
			<path id="SVGID_00000067925258320445013950000006494214039683120047_" d="M1149.8,442.8c-1.2-3.5,4.4-4.5,6.4-4.6
				c3.5-0.1,7-0.1,10.5-0.1c3.5,0.1,6.7,0.6,9.7,1.7c2.9,1.1,5.4,3,7.3,5.7c1.9,2.7,2.9,6.6,3.1,11.8c0.1,5.2,0,10.2-0.6,15.1
				c-0.5,4.9-1.4,9.3-2.8,13.1c-1.3,3.8-3.1,6.9-5.2,9.3c-2.2,2.4-4.9,3.6-8,3.7c-6.3,0.2-11.6-0.7-15.8-2.7c-4.2-2-6.4-4.4-6.5-7.2
				c0-1.3,0.1-3.5,0.4-6.5c0.3-3,0.7-6,1.1-9C1150,469.7,1152.5,450.9,1149.8,442.8z"/>
		</defs>
		<clipPath id="SVGID_00000155117838573386533990000014736187188838481050_">
			<use xlink:href="#SVGID_00000067925258320445013950000006494214039683120047_"  style="overflow:visible;"/>
		</clipPath>
		
			<path style="clip-path:url(#SVGID_00000155117838573386533990000014736187188838481050_);fill:none;stroke:#231F20;stroke-width:40;stroke-linecap:round;stroke-linejoin:round;stroke-miterlimit:10;" d="
			M1167.3,441.5c0,0,5.5,10.5-1.8,53.4"/>
	</g>
	<g id="character-R-2">
		<defs>
			<path id="SVGID_00000096779839329409153380000015582395200001848997_" d="M1120.5,510.3c1.6-6.6,3.5-13.1,5.6-19.8
				c2.1-6.6,4.3-13.1,6.7-19.3c2.4-6.2,4.8-11.8,7.2-16.6c2.4-4.8,4.7-8.7,6.9-11.7c2.2-3,4.4-4.5,6.4-4.6c3.5-0.1,7-0.1,10.5-0.1
				c2,0,4.8,0.6,6.9,1.1c0.8,0.2,1,1.3,0.2,1.7c-6.4,3.2-23.3,14.9-36.2,54.3c-1.7,4.9-3.4,9.9-5.1,15.2c-1.7,5.2-3.2,10.4-4.6,15.6
				c-1.4,5.2-2.5,10.3-3.4,15.4c-6.9,38.5-1.6,46.4-4.7,46c-3.1-0.3-6.4-1.7-10-4.1S1118.9,516.8,1120.5,510.3z"/>
		</defs>
		<clipPath id="SVGID_00000065766988023234923560000014093144135127766181_">
			<use xlink:href="#SVGID_00000096779839329409153380000015582395200001848997_"  style="overflow:visible;"/>
		</clipPath>
		
			<path style="clip-path:url(#SVGID_00000065766988023234923560000014093144135127766181_);fill:none;stroke:#231F20;stroke-width:40;stroke-linecap:round;stroke-linejoin:round;stroke-miterlimit:10;" d="
			M1111.4,568.8c0,0,17-116,52.5-127.3"/>
	</g>
	<g id="character-R-1">
		<defs>
			<path id="SVGID_00000121252120793537550800000014624408743291082160_" d="M1122.2,567.1c0.8,3.1,1.6,5.6,2.3,7.6
				c0.7,2,1.3,3.6,1.8,4.8c0.5,1.2,0.7,2.4,0.7,3.4c0,1.2-0.9,2.3-2.9,3.5c-2,1.1-4.5,1.5-7.6,1.2c-3.1-0.3-6.4-1.7-10-4.1
				s-7-6.6-10.2-12.6c-3.3-6-6-14.1-8.3-24.4c-2.3-10.3-3.7-23.5-4.1-39.6c-0.2-6.3-0.2-13.2,0-20.5c0.2-7.3,0.7-14.2,1.4-20.4
				c0.7-6.3,1.8-11.5,3.2-15.7c1.4-4.2,3.2-6.3,5.3-6.4c8.5-0.2,14.8,1.5,18.8,5.1c4,3.6,6.1,8.1,6.3,13.5c0.1,2.5-0.1,5.2-0.5,8.1
				c-0.4,2.9-0.9,6.1-1.5,9.5c-0.6,3.4-1,7.2-1.4,11.2c-0.4,4-0.2,8.4-0.4,13C1114.1,535.1,1121.3,564,1122.2,567.1z"/>
		</defs>
		<clipPath id="SVGID_00000166656687621666668880000013174227576682969747_">
			<use xlink:href="#SVGID_00000121252120793537550800000014624408743291082160_"  style="overflow:visible;"/>
		</clipPath>
		
			<path style="clip-path:url(#SVGID_00000166656687621666668880000013174227576682969747_);fill:none;stroke:#231F20;stroke-width:40;stroke-linecap:round;stroke-linejoin:round;stroke-miterlimit:10;" d="
			M1104.7,446.9c0,0-18.3,80.6,13.1,134.9"/>
	</g>
</g>
<g id="character-E">
	<g id="character-E-2">
		<defs>
			<path id="SVGID_00000014636322720746871310000009060149979671302843_" d="M1104.5,504.3c-0.4-0.8-0.9-1.3-1.6-1.5
				c-0.7-0.2-1.3-0.1-2,0.4c-0.6,0.5-1.2,1.3-1.6,2.5c-0.3,0.7-0.7,2.5-1.3,5.5c-0.6,3-1.5,6.4-2.9,10.4c-1.3,4-3,8.2-5,12.7
				c-2,4.5-4.5,8.6-7.5,12.5c-3,3.9-6.5,7.1-10.5,9.8c-4,2.7-8.7,4.2-14,4.5c-3.5,0.2-7-1-10.6-3.7c-3.6-2.7-6.8-6.3-9.7-10.8
				c-2.9-4.5-5.9-9.5-7.1-15.6c-5.3-26.3-1.5-34.2-0.4-39.3c1-5.1,2.4-9.6,4.2-13.5c1.8-3.9,3.9-7.2,6.4-9.7
				c2.5-2.5,5.4-3.8,8.8-4.1c2.2-0.1,3.9,1.1,5.1,3.7c1.2,2.6,16-7.9,13.2-13c-2.7-5.1-6.1-8.4-10-10c-2.1-0.9-4.9-1.4-8.6-1.7
				c-3.7-0.3-7.6-0.2-11.6,0.1c-4.1,0.3-8.1,1.2-12,2.5c-3.9,1.3-7.1,3.2-9.4,5.5c-2.3,2.5-4.9,6.2-7.7,11c-2.8,4.9-5.3,10.5-7.6,17
				c-2.3,6.5-4.1,13.6-5.4,21.3c-1.4,7.7-1.8,15.6-1.3,23.8c0.4,6.3,2,12.7,4.9,19.1c2.9,6.4,6.9,12.2,12,17.4
				c5.1,5.2,11.2,9.3,18.3,12.4c7.1,3.1,15,4.3,23.7,3.8c6.5-0.4,12.3-2.3,17.3-5.6c5.1-3.3,9.4-7.4,13.1-12.3
				c3.7-4.9,6.8-10.2,9.4-15.9c2.6-5.7,4.7-11,6.3-16c1.6-5,2.8-9.4,3.6-13c0.8-3.6,1.3-5.9,1.6-6.7
				C1104.8,506.2,1104.8,505.1,1104.5,504.3z"/>
		</defs>
		<clipPath id="SVGID_00000122711839738038590330000007797759325985158796_">
			<use xlink:href="#SVGID_00000014636322720746871310000009060149979671302843_"  style="overflow:visible;"/>
		</clipPath>
		
			<path style="clip-path:url(#SVGID_00000122711839738038590330000007797759325985158796_);fill:none;stroke:#231F20;stroke-width:40;stroke-linecap:round;stroke-linejoin:round;stroke-miterlimit:10;" d="
			M1095.7,535.6c-12.1,25.4-66.7,61.4-83.1-3s28.7-78.5,28.7-78.5s16.3-5,22.6,9.5"/>
	</g>
	<g id="character-E-1">
		<defs>
			<path id="SVGID_00000007421721221241185520000015873288503541736621_" d="M1072.5,473.2c-0.4-7-2-13-4.8-18.1
				c-2.7-5.1-14.5,10.4-13.2,13c1.2,2.6,2,5.8,2.2,9.6c0.2,3.8-0.1,7.9-1,12.2c-0.9,4.3-2.5,8.1-4.8,11.3c-2.3,3.2-5.3,5.6-9.1,7.1
				c-3.1,1.2-6.8,1.2-11.1,0.1l0,0c-1.9-0.4-6.8-1.6-7.7-0.8c-1.2,1,2.7,4.6,4.7,5.2l0.7,0.2c3.8,0.8,5,1.1,8.3,1.5
				c3.3,0.5,6.4,0.6,9.4,0.4c8.1-0.5,14.8-4.3,19.8-11.4C1071.2,496.5,1073.3,486.3,1072.5,473.2z"/>
		</defs>
		<clipPath id="SVGID_00000023253993680142525580000007123635620593160084_">
			<use xlink:href="#SVGID_00000007421721221241185520000015873288503541736621_"  style="overflow:visible;"/>
		</clipPath>
		
			<path style="clip-path:url(#SVGID_00000023253993680142525580000007123635620593160084_);fill:none;stroke:#231F20;stroke-width:40;stroke-linecap:round;stroke-linejoin:round;stroke-miterlimit:10;" d="
			M1028,510.2c0,0,30,6.1,33.6-17.3c3.6-23.4-2.9-40.4-20.3-38.8"/>
	</g>
</g>
<g id="character-D">
	<g id="character-D-2">
		<defs>
			<path id="SVGID_00000156576443695222290530000007226989745125145490_" d="M958,463.8c-2.7-2.6-6.3-4-10.7-4.1
				c-4.4-0.1-10,0.1-17,0.8c-6.1,0.5-11.6,2.4-16.4,5.6c-4.8,3.2-9.1,7.3-12.7,12.2c-3.7,4.9-6.8,10.5-9.3,16.8
				c-2.5,6.3-4.5,12.7-5.9,19.2c-1.4,6.6-2.3,13.1-2.8,19.5c-0.4,6.4-0.4,12.3,0.1,17.8c0.8,8.6,2.6,15.9,5.3,21.7
				c2.8,5.9,6.2,10.5,10.3,14c4.1,3.5,8.6,5.9,13.6,7.2c5,1.3,9.9,1.7,14.9,1.3c5-0.4,9.3-2.4,13-5.8c3.7-3.4,6.8-7.1,9.4-11.1
				c2.6-4,4.6-7.6,6.2-10.8c1.5-3.2,14.5-34.7,16.3-40.2c1.8-5.5,3.5-9.8,1.5-13c-2-3.2-8.9-4.2-11.9-3.1c-3,1.1-4.7,12.1-4.7,12.1
				c-0.2,1.5-0.4,3.1-0.8,5c-0.8,4.2-1.9,8.8-3.4,13.7c-1.5,5-3.2,10.1-5,15.3c-1.9,5.2-3.8,10-5.7,14.3c-2,4.4-3.9,7.9-5.7,10.7
				c-1.8,2.8-3.3,4.2-4.5,4.3c-1.8,0.2-3.6-0.5-5.3-2c-1.7-1.5-3.3-3.4-4.7-5.7c-1.4-2.3-2.5-4.8-3.3-7.6c-0.8-2.8-1.4-5.3-1.6-7.6
				c-1-11.5-1.2-22.7-0.4-33.6c0.8-10.9,2.3-20.7,4.6-29.4c2.3-8.7,5.3-15.7,8.9-21.1c3.6-5.4,7.7-8.3,12.4-8.8
				c2.3-0.2,3.9,0.7,4.8,2.8c0.9,2.1,1.3,4.6,1.4,7.5c0.1,2.9,0,5.8-0.2,8.7c-0.2,2.9-0.3,5-0.2,6.3c0.1,1.3,1,2.1,2.7,2.4
				c1.7,0.3,3.5,0.2,5.5-0.1c0,0,4.3-3.9,5-12.4C963.4,466.8,958,463.8,958,463.8z"/>
		</defs>
		<clipPath id="SVGID_00000116932315936047320310000005818678014752014222_">
			<use xlink:href="#SVGID_00000156576443695222290530000007226989745125145490_"  style="overflow:visible;"/>
		</clipPath>
		
			<path style="clip-path:url(#SVGID_00000116932315936047320310000005818678014752014222_);fill:none;stroke:#231F20;stroke-width:40;stroke-linecap:round;stroke-linejoin:round;stroke-miterlimit:10;" d="
			M956.8,486.5c0,0,2.8-27.6-20.8-20.3c-23.6,7.3-43.5,52.5-36.1,91.5c7.4,38.9,39.6,51.9,56.9,0s18-69.7,18-69.7"/>
	</g>
	<g id="character-D-1">
		<defs>
			<path id="SVGID_00000018212193970200753480000007600109045988427937_" d="M956,463.8c0.3-9.4,0.8-18.8,1.4-28.1
				c0.6-9.3,1.1-17.8,1.6-25.2c0.5-7.5,0.9-13.6,1.2-18.3c0.3-4.7,0.5-7.2,0.5-7.6c-0.1-1,0-2.3,0.4-3.8c0.4-1.5,1.7-2.4,4-2.6
				c1.2-0.1,3.3,0.2,6.3,0.8c3.1,0.6,6.2,1.6,9.4,2.8c3.2,1.2,6.1,2.7,8.6,4.5c2.5,1.8,3.9,3.8,4,5.9c0.2,2.3-0.3,7.4-1.5,15.2
				c-1.2,7.8-2.5,17.4-3.7,28.7c-1.2,11.3-2.2,23.8-2.9,37.5c-0.7,13.7-0.4,27.4,0.8,41.2c1.4,15.9,3,29.4,4.9,40.4
				c1.8,11,3.6,20.1,5.2,27.3c1.7,7.2,3.2,12.8,4.5,16.8c1.4,4,2.4,6.9,3.1,8.9c0.7,1.9,0.8,3.1,0.3,3.6c-0.5,0.5-1.6,0.8-3.4,0.9
				c-5.3,0.5-10-0.4-14.2-2.7c-4.1-2.3-7.8-5.3-11-8.9c-3.2-3.6-5.9-7.7-8.1-12.1c-2.2-4.4-4.1-8.5-5.5-12.3
				c-1.4-3.8-3.2-9.6-3.2-9.6C952.8,536.9,956,463.8,956,463.8z"/>
		</defs>
		<clipPath id="SVGID_00000127020396754564615400000012752996233694337664_">
			<use xlink:href="#SVGID_00000018212193970200753480000007600109045988427937_"  style="overflow:visible;"/>
		</clipPath>
		
			<path style="clip-path:url(#SVGID_00000127020396754564615400000012752996233694337664_);fill:none;stroke:#231F20;stroke-width:40;stroke-linecap:round;stroke-linejoin:round;stroke-miterlimit:10;" d="
			M976.3,384.1c0,0-28.4,155.1,17.8,221.6"/>
	</g>
</g>
<g id="character-N">
	<g id="character-N-3">
		<defs>
			<path id="SVGID_00000106125859978355185890000010657373539929405328_" d="M843.9,467.7c0.3-0.4,0.9-0.8,1.9-1.2
				c0.5-0.2,0.9-0.4,1.3-0.5c0.4-0.1,0.9-0.2,1.4-0.3c0.8-0.1,1.6-0.2,2.4-0.3c0.7-0.1,1.5-0.1,2.4,0c3.8-0.4,6.2-0.3,7.1,0.4
				c4.1,0.7,7.9,2,11.4,3.9c3.5,1.9,5.4,4.3,5.7,7.3c0.2,2,0.2,5,0,9.1c-0.2,4.1-0.5,8.7-0.8,13.9c-0.3,5.2-0.7,10.8-1.2,16.7
				c-0.4,5.9-0.8,11.7-1.1,17.2c-0.3,5.6-0.5,10.8-0.6,15.7c-0.1,4.9,0,8.9,0.4,12c1.1,9.4,2.2,16.6,3.2,21.4
				c1.1,4.8,2.1,8.4,3,10.9c0.9,2.4,1.7,4.2,2.3,5.3c0.7,1.1,1.1,2.6,1.3,4.4c0.2,1.8-1.6,3-5.5,3.4c-3.9,0.4-8.4-0.5-13.4-2.7
				s-9.9-6.3-14.5-12.1c-4.6-5.8-7.5-13.9-8.7-24.3c-0.8-7-1.3-14.1-1.6-21.6c-0.3-7.4-0.4-14.7-0.4-21.8c0-7.1,0.2-13.9,0.5-20.3
				C840.7,497.7,841.1,469.7,843.9,467.7z"/>
		</defs>
		<clipPath id="SVGID_00000116219702215913626200000013222463322008158647_">
			<use xlink:href="#SVGID_00000106125859978355185890000010657373539929405328_"  style="overflow:visible;"/>
		</clipPath>
		
			<path style="clip-path:url(#SVGID_00000116219702215913626200000013222463322008158647_);fill:none;stroke:#231F20;stroke-width:40;stroke-linecap:round;stroke-linejoin:round;stroke-miterlimit:10;" d="
			M859.7,469.1c0,0-20.3,103.9,16,133.7"/>
	</g>
	<g id="character-N-2">
		<defs>
			<path id="SVGID_00000078743963890242362340000013990879765070689723_" d="M836.2,504.8c-1.4,7-3,14.4-4.5,22.4
				c-1.5,8-3,16-4.5,24.2c-1.5,8.1-3,15.8-4.5,22.9c-1.5,7.1-3,13.5-4.5,19c-1.5,5.5-2.9,9.6-4.3,12.1c0,1.2-0.6,2.1-1.7,2.7
				l-0.7,0.1c-0.2,0.1-0.8-0.2-1.5-0.8c-4.8-3.8-7-10-5.9-15.9c1.9-10.1,4.9-25.1,5.9-30.1c1.5-7,3-14.4,4.8-22.1
				c1.7-7.7,3.7-15.3,5.8-22.9c2.1-7.6,4.4-14.7,6.7-21.3c2.4-6.6,4.8-12.3,7.5-17.1c2.6-4.8,5.3-8.2,8.1-10.2
				c0.3-0.4,0.9-0.8,1.9-1.2c0.5-0.2,0.9-0.4,1.3-0.5c0.4-0.1,0.9-0.2,1.4-0.3C848.3,465.6,841,480.3,836.2,504.8z"/>
		</defs>
		<clipPath id="SVGID_00000163035383166159341720000000226397579371786628_">
			<use xlink:href="#SVGID_00000078743963890242362340000013990879765070689723_"  style="overflow:visible;"/>
		</clipPath>
		
			<path style="clip-path:url(#SVGID_00000163035383166159341720000000226397579371786628_);fill:none;stroke:#231F20;stroke-width:40;stroke-linecap:round;stroke-linejoin:round;stroke-miterlimit:10;" d="
			M808.5,598.5c0,0,17.2-117.1,43.8-129.4"/>
	</g>
	<g id="character-N-1">
		<defs>
			<path id="SVGID_00000013884669509459513440000008926586537062140294_" d="M813.3,605.6c0.3,1.6-0.8,3.2-2.4,3.4c0,0,0,0,0,0
				c-6,0.7-11.2-0.9-15.6-4.6c-4.5-3.8-8.3-8.7-11.5-14.7c-3.2-6-5.8-12.7-7.8-20c-2-7.3-3.6-14.2-4.8-20.7c-1.2-6.5-2-12-2.4-16.6
				c-0.4-4.6-0.7-7.2-0.8-7.8c-0.1-1.2-0.3-1.9-0.6-2.3c-0.3-0.4-0.7-0.8-1.1-1.1c-0.5-0.4-0.8-0.7-1.1-1.1
				c-0.3-0.4-0.5-1.2-0.6-2.3c-0.1-1.2,1.7-2.3,5.4-3.4c3.7-1.1,7.9-1.7,12.5-1.8c4.6-0.1,8.9,0.6,12.9,2c4,1.5,6.3,4.2,6.7,8.2
				c0.2,1.3,0.4,3.8,0.7,7.3c0.3,3.6,0.6,7.5,1,11.7c0.3,4.2,0.7,8.4,1,12.3C805.1,558.1,811.9,597.8,813.3,605.6z"/>
		</defs>
		<clipPath id="SVGID_00000096768959064374604050000006104669197230300046_">
			<use xlink:href="#SVGID_00000013884669509459513440000008926586537062140294_"  style="overflow:visible;"/>
		</clipPath>
		
			<path style="clip-path:url(#SVGID_00000096768959064374604050000006104669197230300046_);fill:none;stroke:#231F20;stroke-width:40;stroke-linecap:round;stroke-linejoin:round;stroke-miterlimit:10;" d="
			M783,521.4c0,0,4.4,55.1,25.4,77.1"/>
	</g>
</g>
<g id="character-A">
	<g id="character-A-2">
		<defs>
			<path id="SVGID_00000159469126854100417120000015647955521269000337_" d="M712,547.5c-0.1-1.2-0.2-2.6-0.3-4.2
				c-0.1-1.7,0.3-3.3,1-4.8c0.7-1.5,2-2.9,3.9-4.2c1.9-1.2,4.7-2.1,8.5-2.6c7.6-1,13.2-0.3,16.9,2c3.7,2.3,5.7,4.8,6,7.4l0.5,4
				c0.7,4.3,1.5,10,2.5,17.2c0.9,7.2,2.1,14.3,3.4,21.2c1.3,7,2.8,13,4.5,18c1.7,5,3.5,7.4,5.5,7.1c0.8-0.1,2-2.2,3.5-6.4
				c1.5-4.1,3-9.3,4.7-15.5c1.6-6.2,3.3-12.9,5.1-20.3c1.7-7.4,3.3-14.3,4.7-20.8c1.4-6.5,2.6-12.1,3.6-16.7c1-4.7,1.6-7.5,1.8-8.6
				c0.2-1.4,0.6-2.4,1.4-3.1c0.8-0.7,1.5-1,2.3-1c0.8,0,1.4,0.4,1.9,1.1c0.5,0.8,0.7,1.9,0.6,3.5c0,1-0.4,4.1-1.2,9.1
				c-0.8,5.1-1.9,11.2-3.3,18.3c-1.4,7.2-3.1,14.9-5.1,23.2c-1.9,8.3-4.2,16.2-6.7,23.6c-2.5,7.4-5.2,13.9-8.2,19.5
				c-3,5.6-6.1,9.2-9.4,10.8c-0.8,0.6-2.1,1-3.9,1.3c-4,0.5-7.6-0.2-10.8-2.3c-3.2-2-6.2-4.7-8.8-7.9c-2.7-3.3-5.1-6.9-7.1-10.9
				c-2-4-3.8-7.7-5.2-11.2c-1.5-3.4-2.6-6.3-3.4-8.6C719.9,583.3,714,567.8,712,547.5z"/>
		</defs>
		<clipPath id="SVGID_00000032637166944783221140000001934115387113863821_">
			<use xlink:href="#SVGID_00000159469126854100417120000015647955521269000337_"  style="overflow:visible;"/>
		</clipPath>
		
			<path style="clip-path:url(#SVGID_00000032637166944783221140000001934115387113863821_);fill:none;stroke:#231F20;stroke-width:40;stroke-linecap:round;stroke-linejoin:round;stroke-miterlimit:10;" d="
			M728.7,541.8c0,0,20.2,107.5,37.2,71.1c17-36.4,24.7-88.1,24.7-88.1"/>
	</g>
	<g id="character-A-1">
		<defs>
			<path id="SVGID_00000124846825949251867150000014460783467756921520_" d="M720.7,569.2c-0.6,3.2-2.4,14-2.9,16
				c-0.5,2-1.2,4.4-2.1,7.3c-0.9,2.9-1.9,6.1-3.2,9.6c-1.2,3.5-2.7,6.8-4.5,9.8c-1.8,3-3.9,5.6-6.4,7.9c-2.5,2.3-5.4,3.6-8.7,4
				c-5,0.6-9.7,0.4-14.2-0.8c-4.5-1.2-8.6-3.5-12.4-6.8c-3.7-3.4-6.9-8-9.5-13.8c-2.6-5.8-4.5-13-5.6-21.6c-1-8.1-1.1-17.3-0.2-27.5
				s3.1-19.9,6.5-29.2c3.4-9.3,8.1-17.3,14.2-24c6-6.7,13.6-10.7,22.9-11.9c6.4-0.8,12.3-1.4,17.7-1.7c5.3-0.3,10.1,0.5,14.3,2.2
				c4.2,1.7,7.6,4.9,10.4,9.5c2.8,4.6,4.8,11.4,5.9,20.5c0.1,0.9-0.3,1.9-1.3,2.8c-0.7,0.6-1.4,1.1-2.2,1.5
				c-1.3,0.5-2.4,0.6-3.5,0.3c-1-0.3-1.5-1.1-1.7-2.4c-0.2-1.5-0.6-3.6-1.2-6.4c-0.6-2.8-1.5-5.6-2.7-8.3c-1.2-2.8-2.6-5.2-4.3-7.1
				c-1.7-2-3.7-2.8-6-2.5c-6.1,0.8-11.6,4.1-16.5,9.8c-4.9,5.8-8.9,13.1-12,22.1c-3.1,9-5.2,19-6.3,30.1
				c-1.1,11.1-0.9,22.3,0.6,33.7c0.3,2.3,0.7,4.9,1.2,7.7c0.5,2.8,1.2,5.3,2.1,7.7c0.9,2.3,2,4.2,3.4,5.7c1.4,1.5,3,2.1,4.8,1.9
				c1.2-0.2,2.4-1.6,3.7-4.4c1.3-2.8,2.6-6.3,3.8-10.7c1.2-4.4,2.3-9.1,3.3-14.3c1-5.2,1.8-10.2,2.4-15.2c0.6-5,1.1-9.5,1.4-13.7
				c0.3-4.2,0.3-7.3,0-9.5c-0.1-1.2-0.2-2.6-0.3-4.2c-0.1-1.7,0.3-3.3,1-4.8c0.7-1.5,2-2.9,3.9-4.2c0,0,0,0,0.1,0
				c3.5-2.3,8.1,0.7,7.6,4.8C722.6,553.1,721.2,566,720.7,569.2z"/>
		</defs>
		<clipPath id="SVGID_00000013912072196764190050000012663792266809567912_">
			<use xlink:href="#SVGID_00000124846825949251867150000014460783467756921520_"  style="overflow:visible;"/>
		</clipPath>
		
			<path style="clip-path:url(#SVGID_00000013912072196764190050000012663792266809567912_);fill:none;stroke:#231F20;stroke-width:40;stroke-linecap:round;stroke-linejoin:round;stroke-miterlimit:10;" d="
			M738.6,516.2c0,0-10.4-47.1-47.9-14c-43.2,38.2-12.6,160.2,15.9,103.2c0,0,11.7-29.8,13.6-63.6"/>
	</g>
</g>
<g id="character-W">
	<g id="character-W-4">
		<defs>
			<path id="SVGID_00000141430753020115272730000018339859604344331915_" d="M577.4,646.6c1-0.1,1.9-0.3,2.7-0.5
				c0.8-0.2,1.6-0.4,2.4-0.7c6.5-1.5,12.9-5,19-10.5c6.2-5.4,11.8-12.2,17-20.4c5.1-8.2,9.7-17.4,13.8-27.7
				c4.1-10.3,7.4-21.2,9.9-32.6c2.5-11.4,4.1-23.1,4.8-35.1c0.7-11.9,0.3-23.5-1.2-34.8c-2.7-20-6.8-36.6-12.4-49.8
				c-5.6-13.2-11.8-23.6-18.6-31.3c-6.7-7.7-13.6-12.9-20.6-15.8c-7-2.8-13.3-3.9-19-3.1c-3.8,0.5-5.8,1.6-6.1,3.2
				c-0.3,1.6,0.5,4.1,2.5,7.4s4.7,7.4,8.2,12.4c3.5,5,7.2,11.1,10.9,18.3c3.7,7.2,7.3,15.7,10.6,25.5c3.3,9.7,5.8,20.9,7.5,33.4
				c1.1,8.1,1.7,16.9,1.9,26.5c0.2,9.6,0,19.3-0.6,29.2c-0.6,9.9-1.6,19.7-3,29.4c-1.4,9.7-3.1,18.7-5,26.9
				c-1.9,8.2-4.1,15.5-6.6,21.7C592.9,624.4,577.4,646.6,577.4,646.6z"/>
		</defs>
		<clipPath id="SVGID_00000160165736714102368640000017908614208367885203_">
			<use xlink:href="#SVGID_00000141430753020115272730000018339859604344331915_"  style="overflow:visible;"/>
		</clipPath>
		
			<path style="clip-path:url(#SVGID_00000160165736714102368640000017908614208367885203_);fill:none;stroke:#231F20;stroke-width:42;stroke-linecap:round;stroke-linejoin:round;stroke-miterlimit:10;" d="
			M585.9,638.8c0,0,97.9-152.3-8.3-247.5"/>
	</g>
	<g id="character-W-3">
		<defs>
			<path id="SVGID_00000131327634297828705680000017316723192211881094_" d="M570.2,567.5c-0.6-4.5-1.1-8.5-1.5-12
				c-0.4-3.6-0.8-7.1-1.3-10.7c-0.5-3.6-0.9-7.4-1.4-11.5c-0.5-4.1-1.1-9-1.8-14.6c-0.7-5.1-2.3-10.1-4.8-15
				c-2.5-4.9-5.4-9.2-8.8-13.1c-3.4-3.8-7.1-6.8-11.2-9c-4.1-2.1-7.9-3.1-11.6-3c-3.7,0.3-6.2,0.8-7.7,1.5c-1.5,0.7-2.3,1.7-2.5,3.1
				c-0.2,1.4,0.1,3.1,0.7,5.2c0.6,2.1,1.2,4.5,1.7,7.3c0.2,4.2,0.3,10.1,0.2,17.9c-0.1,7.7,4.6,45.3,4.6,45.3s6.1,31.7,9.9,43.3
				c3.8,11.6,8,20.8,12.5,27.7c4.5,6.9,9.4,11.6,14.5,14.1c5.1,2.5,10.3,3.4,15.6,2.7c1-0.1,1.9-0.3,2.7-0.5
				c0.8-0.2,1.6-0.4,2.4-0.7c0.7-0.2,1.3-1.2,1.8-2.5c1.1-3,1.2-6.3,0.5-9.5C581.7,619.7,570.8,572.1,570.2,567.5z"/>
		</defs>
		<clipPath id="SVGID_00000049188164466870341160000000624356287551524776_">
			<use xlink:href="#SVGID_00000131327634297828705680000017316723192211881094_"  style="overflow:visible;"/>
		</clipPath>
		
			<path style="clip-path:url(#SVGID_00000049188164466870341160000000624356287551524776_);fill:none;stroke:#231F20;stroke-width:50;stroke-linecap:round;stroke-linejoin:round;stroke-miterlimit:10;" d="
			M528.5,486.5c25.4,56,13.4,124.4,57.4,152.3"/>
	</g>
	<g id="character-W-2">
		<defs>
			<path id="SVGID_00000152985758980677193890000015657419687878055339_" d="M521.2,593.6c-1.5,11.7-3.3,22.3-5.6,31.9
				c-2.3,9.5-4.7,17.4-7.5,23.6c-2.4,5.4-4.9,8.5-7.5,9.6l3.7-14c1.9-4.5,3.6-10.6,5.2-18.5c1.5-7.9,2.9-16.7,4.2-26.4
				c1.2-9.7,2.3-19.7,3.2-30.2c0.9-10.5,1.6-20.5,2-30c0.5-9.6,0.8-18.2,0.8-26c0.1-7.7,0-13.7-0.2-17.9c-0.5-2.8-1.1-5.2-1.7-7.3
				c-0.6-2.1-0.8-3.8-0.7-5.2c0.2-1.4,1-2.4,2.5-3.1c1.3-0.6,3.3-1,6-1.4c1-0.1,2,0.6,2.2,1.6C531.4,497.7,522.6,582.4,521.2,593.6z
				"/>
		</defs>
		<clipPath id="SVGID_00000082348305282904973520000016057492112054978196_">
			<use xlink:href="#SVGID_00000152985758980677193890000015657419687878055339_"  style="overflow:visible;"/>
		</clipPath>
		
			<path style="clip-path:url(#SVGID_00000082348305282904973520000016057492112054978196_);fill:none;stroke:#231F20;stroke-width:20;stroke-linecap:round;stroke-linejoin:round;stroke-miterlimit:10;" d="
			M503,652.7c16-46.8,27.6-148.3,19.6-176.3"/>
	</g>
	<g id="character-W-1">
		<defs>
			<path id="SVGID_00000012460834539268437280000018095268464418911673_" d="M500.6,658.6l3.9-4.9c2.1-2.7,2-6.5-0.2-9.1l0,0l-2.7,0
				c-0.8-0.2-1.7-0.8-2.6-1.7c-1.3-1.3-2.4-3.1-3.5-5.2s-1.9-4.4-2.7-6.8c-0.7-2.4-1.2-4.6-1.5-6.6c-0.4-3.3-1-8.6-1.6-15.9
				c-0.6-7.3-1.3-15.5-2-24.7c-0.7-9.2-1.5-18.8-2.3-28.8c-0.8-10.1-1.6-19.5-2.3-28.4c-0.7-8.9-1.3-16.7-1.8-23.3
				c-0.6-6.6-1-11.2-1.3-13.7c-0.9-7.1-2.9-13.2-6-18.4c-3-5.1-6.6-9.3-10.8-12.6c-4.1-3.2-8.6-5.5-13.3-6.8
				c-4.7-1.3-9.1-1.7-13.3-1.1c-1.3,0.2-2.8,0.5-4.4,1.1c-5.2,1-10.7,2.5-16.3,4.4c-5.6,1.9-11.7,4-18.2,6.1
				c-6.5,2.1-13.6,4.2-21.4,6.3c-7.7,2-16.2,3.7-25.4,4.9c-5.5,0.7-9.7,0.6-12.7-0.3c-3-0.9-5.3-2.1-7-3.5c-1.7-1.4-3.1-2.6-4.3-3.8
				c-1.2-1.2-2.7-1.7-4.7-1.4c-1.3,0.2-1.9,1.4-1.8,3.6c0.1,2.3,0.9,5,2.3,8.1c1.4,3.2,3.6,6.6,6.4,10.2c2.8,3.7,6.3,6.9,10.2,9.7
				c4,2.8,8.6,5,13.7,6.6c5.2,1.6,10.9,2,17.2,1.1c6.6-0.9,12.8-2,18.5-3.5c5.7-1.4,11.1-3,16.1-4.7c5.1-1.7,9.9-3.3,14.5-5
				c4.6-1.6,9.1-3,13.5-4.1c1.6,12.1,3,24.2,4.1,36.3c1.1,12.1,2.1,23.7,3.1,34.6c1,11,1.8,21.1,2.7,30.4c0.8,9.3,1.7,17.2,2.5,23.6
				c0.9,6.6,2.7,13,5.5,19.2c2.8,6.2,6.2,11.6,10.3,16.1c4.1,4.6,8.8,8.1,14,10.6c5.2,2.5,10.8,3.4,16.7,2.6
				c0.8-0.1,1.6-0.2,2.2-0.3c0.7-0.1,1.4-0.3,2.2-0.5l1.5-0.2C497.8,658.9,500.6,658.6,500.6,658.6z"/>
		</defs>
		<clipPath id="SVGID_00000163769332439802089960000012575448810806642843_">
			<use xlink:href="#SVGID_00000012460834539268437280000018095268464418911673_"  style="overflow:visible;"/>
		</clipPath>
		
			<path style="clip-path:url(#SVGID_00000163769332439802089960000012575448810806642843_);fill:none;stroke:#231F20;stroke-width:50;stroke-linecap:round;stroke-linejoin:round;stroke-miterlimit:10;" d="
			M328.2,474.7c40.7,23.1,47,22,115.7-5.1c28.9-13.5-6.7,175.2,56.7,185.1"/>
	</g>
</g>
</svg>
