<svg width="389" height="226" viewBox="0 0 389 226" fill="none" xmlns="http://www.w3.org/2000/svg">
<g style="mix-blend-mode:multiply" opacity="0.08">
<path d="M51.168 25.296L53.344 31.44H32.992L34.912 25.296V18.896L32.992 17.104H20.576L18.656 18.896V39.376L20.576 41.296H43.104L51.168 49.36V89.936L43.104 98H10.72L2.272 89.936V73.552L0.48 67.408H20.704L18.656 73.552V79.952L20.576 81.744H32.992L34.912 79.952V59.472L32.992 57.552H10.72L2.272 49.36V8.656L10.72 0.719994H43.104L51.168 8.656V25.296ZM111.507 98H62.867L64.915 91.728V6.864L62.867 0.719994H111.507L114.451 18.64L107.795 16.72H82.835L80.915 18.64V38.736L82.835 40.656H91.027L97.299 38.608V58.96L91.027 56.912H82.835L80.915 58.704V79.696L82.835 81.616H107.795L114.451 79.696L111.507 98ZM141.338 98H121.242L123.29 91.856V6.992L121.242 0.719994H163.738L171.93 8.656V52.944L163.738 61.136L170.778 91.472L173.338 98H153.242L154.65 91.984L147.738 62.672L146.458 61.136H141.21L139.29 63.056V91.856L141.338 98ZM141.21 45.008H153.754L155.674 43.216V18.896L153.754 17.104H141.21L139.29 18.896V43.216L141.21 45.008ZM201.04 91.856L203.088 98H182.992L185.04 91.856V6.992L182.992 0.719994H203.088L201.04 6.992V91.856ZM254.717 0.719994L262.781 8.656V89.936L254.717 98H222.333L214.141 89.936V8.656L222.333 0.719994H254.717ZM246.397 18.896L244.477 17.104H232.189L230.269 18.896V79.952L232.189 81.744H244.477L246.397 79.952V18.896ZM326.478 0.719994L324.43 6.992V89.936L316.238 98H283.726L275.79 89.936V6.992L273.742 0.719994H293.838L291.79 6.992V79.952L293.71 81.744H306.254L308.174 79.952V6.992L306.126 0.719994H326.478ZM386.418 25.296L388.594 31.44H368.242L370.162 25.296V18.896L368.242 17.104H355.826L353.906 18.896V39.376L355.826 41.296H378.354L386.418 49.36V89.936L378.354 98H345.97L337.522 89.936V73.552L335.73 67.408H355.954L353.906 73.552V79.952L355.826 81.744H368.242L370.162 79.952V59.472L368.242 57.552H345.97L337.522 49.36V8.656L345.97 0.719994H378.354L386.418 8.656V25.296ZM3.04 134.864L0.992 128.72H49.632L52.576 146.64L45.92 144.72H20.96L19.04 146.64V167.248L20.96 169.168H29.152L35.296 167.12V187.472L29.152 185.424H20.96L19.04 187.216V219.728L21.088 226H0.992L3.04 219.728V134.864ZM110.951 207.952L108.007 226H59.367L61.415 219.856V134.992L59.367 128.72H79.463L77.543 134.992V207.952L79.463 209.744H104.295L110.951 207.952ZM175.47 219.472L178.67 226H158.318L159.726 222.16L156.142 207.312L154.222 205.392H138.222L136.302 207.312L132.718 222.16L134.126 226H113.774L116.974 219.472L136.942 134.352L135.15 128.72H157.294L155.502 134.352L175.47 219.472ZM140.014 187.6L141.55 189.008H151.022L152.558 187.6L146.286 156.496L140.014 187.6ZM226.868 138.064L209.844 220.112L211.38 226H189.108L190.644 220.112L173.236 138.192L169.524 128.72H189.62L188.468 132.432L200.116 193.36L211.764 132.432L210.356 128.72H230.708L226.868 138.064ZM278.342 128.72L286.406 136.656V217.936L278.342 226H245.958L237.766 217.936V136.656L245.958 128.72H278.342ZM270.022 146.896L268.102 145.104H255.814L253.894 146.896V207.952L255.814 209.744H268.102L270.022 207.952V146.896ZM317.463 226H297.367L299.415 219.856V134.992L297.367 128.72H339.863L348.055 136.656V180.944L339.863 189.136L346.903 219.472L349.463 226H329.367L330.775 219.984L323.863 190.672L322.583 189.136H317.335L315.415 191.056V219.856L317.463 226ZM317.335 173.008H329.879L331.799 171.216V146.896L329.879 145.104H317.335L315.415 146.896V171.216L317.335 173.008Z" fill="black"/>
</g>
</svg>
