<svg width="489" height="226" viewBox="0 0 489 226" fill="none" xmlns="http://www.w3.org/2000/svg">
<g style="mix-blend-mode:multiply" opacity="0.08">
<path d="M51.168 25.296L53.344 31.44H32.992L34.912 25.296V18.896L32.992 17.104H20.576L18.656 18.896V39.376L20.576 41.296H43.104L51.168 49.36V89.936L43.104 98H10.72L2.272 89.936V73.552L0.48 67.408H20.704L18.656 73.552V79.952L20.576 81.744H32.992L34.912 79.952V59.472L32.992 57.552H10.72L2.272 49.36V8.656L10.72 0.719994H43.104L51.168 8.656V25.296ZM119.571 35.92L105.363 70.096H95.123L80.915 35.92V91.856L82.963 98H62.867L64.915 91.856V6.992L62.867 0.719994H80.915L100.243 44.752L119.571 0.719994H137.619L135.571 6.992V91.856L137.619 98H117.523L119.571 91.856V35.92ZM189.217 0.719994L197.281 8.656V89.936L189.217 98H156.833L148.641 89.936V8.656L156.833 0.719994H189.217ZM180.897 18.896L178.977 17.104H166.689L164.769 18.896V79.952L166.689 81.744H178.977L180.897 79.952V18.896ZM271.09 98H247.794L249.202 93.776L234.482 58.192L226.29 72.4V91.728L228.338 98H208.242L210.29 91.728V6.992L208.242 0.719994H228.338L226.29 6.992V41.808L247.794 3.536L246.514 0.719994H269.298L263.154 8.52799L244.722 40.4L265.202 90.32L271.09 98ZM325.757 98H277.117L279.165 91.728V6.864L277.117 0.719994H325.757L328.701 18.64L322.045 16.72H297.085L295.165 18.64V38.736L297.085 40.656H305.277L311.549 38.608V58.96L305.277 56.912H297.085L295.165 58.704V79.696L297.085 81.616H322.045L328.701 79.696L325.757 98ZM372.1 64.08V91.856L373.892 98H354.052L356.1 91.856V64.08L336.26 7.88799L331.524 0.719994H355.46L353.156 4.56L364.036 40.272L374.916 4.56L372.612 0.719994H396.548L391.812 7.88799L372.1 64.08ZM10.208 226L2.016 217.936V136.656L10.208 128.72H42.592L50.656 136.656V153.04L52.704 159.184H32.352L34.528 153.04V146.64L32.736 144.72H20.192L18.4 146.64V207.696L20.192 209.616H32.736L34.528 207.696V190.16H29.92L26.336 173.776H52.704L50.656 180.176V217.936L42.592 226H10.208ZM104.342 128.72L112.406 136.656V217.936L104.342 226H71.958L63.766 217.936V136.656L71.958 128.72H104.342ZM96.022 146.896L94.102 145.104H81.814L79.894 146.896V207.952L81.814 209.744H94.102L96.022 207.952V146.896ZM164.967 128.72L173.031 136.656V217.936L164.967 226H132.583L124.391 217.936V136.656L132.583 128.72H164.967ZM156.647 146.896L154.727 145.104H142.439L140.519 146.896V207.952L142.439 209.744H154.727L156.647 207.952V146.896ZM185.784 134.864L183.992 128.72H226.488L234.68 136.656V217.936L226.488 226H183.992L185.784 219.728V134.864ZM202.04 146.64V207.696L203.96 209.616H216.376L218.296 207.696V146.64L216.376 144.72H203.96L202.04 146.64ZM263.79 219.856L265.838 226H245.742L247.79 219.856V134.992L245.742 128.72H263.79L287.342 187.984V134.992L285.294 128.72H305.646L303.598 134.992V219.856L305.646 226H287.342L263.79 166.864V219.856ZM364.257 226H315.617L317.665 219.728V134.864L315.617 128.72H364.257L367.201 146.64L360.545 144.72H335.585L333.665 146.64V166.736L335.585 168.656H343.777L350.049 166.608V186.96L343.777 184.912H335.585L333.665 186.704V207.696L335.585 209.616H360.545L367.201 207.696L364.257 226ZM424.168 153.296L426.344 159.44H405.992L407.912 153.296V146.896L405.992 145.104H393.576L391.656 146.896V167.376L393.576 169.296H416.104L424.168 177.36V217.936L416.104 226H383.72L375.272 217.936V201.552L373.48 195.408H393.704L391.656 201.552V207.952L393.576 209.744H405.992L407.912 207.952V187.472L405.992 185.552H383.72L375.272 177.36V136.656L383.72 128.72H416.104L424.168 136.656V153.296ZM486.043 153.296L488.219 159.44H467.867L469.787 153.296V146.896L467.867 145.104H455.451L453.531 146.896V167.376L455.451 169.296H477.979L486.043 177.36V217.936L477.979 226H445.595L437.147 217.936V201.552L435.355 195.408H455.579L453.531 201.552V207.952L455.451 209.744H467.867L469.787 207.952V187.472L467.867 185.552H445.595L437.147 177.36V136.656L445.595 128.72H477.979L486.043 136.656V153.296Z" fill="black"/>
</g>
</svg>
